<?xml version="1.0" encoding="UTF-8"?>
<svg id="Layer_2" data-name="Layer 2" xmlns="http://www.w3.org/2000/svg" viewBox="0 0 358.88 227.43">
  <defs>
    <style>
      .cls-1 {
        font-family: Gotham-Black, Gotham;
        font-size: 18.25px;
        font-weight: 800;
      }

      .cls-1, .cls-2 {
        fill: #9bbde4;
      }

      .cls-3 {
        letter-spacing: .08em;
      }

      .cls-4 {
        letter-spacing: .02em;
      }

      .cls-5 {
        fill: #fff;
        font-family: Andreas-Regular, Andreas;
        font-size: 71.75px;
      }

      .cls-6 {
        letter-spacing: .08em;
      }

      .cls-7 {
        letter-spacing: .08em;
      }

      .cls-8 {
        letter-spacing: 0em;
      }
    </style>
  </defs>
  <g id="Layer_1-2" data-name="Layer 1">
    <g>
      <text class="cls-5" transform="translate(0 180.09)"><tspan x="0" y="0">the</tspan><tspan class="cls-8" x="98.22" y="0">r</tspan><tspan x="123.76" y="0">apylink</tspan></text>
      <g>
        <path class="cls-2" d="m215.89,28.75c-1.8-1.18-3.68-2.23-5.72-3.15,1.84-2.15,2.35-4.65,2.1-7.35-.32-3.42-2.21-5.88-4.87-7.83-3.01-2.2-6.43-2.99-10.1-2.73-2.58.18-4.96,1.07-7.13,2.48-.43.28-.86.56-1.29.85-.41-.04-.7.24-1,.44-2.16,1.47-3.89,3.32-5.2,5.59-.21.36-.26.88-.81.96,0-1.57-.02-3.14-.02-4.71.27-1.74.13-3.49.12-5.24.03-1.07.73-1.84,1.35-2.55,1.69-1.93,3.69-3.44,6.2-4.29,1.61-.54,3.2-.97,4.89-1.02,1.12,0,2.23.01,3.35.02,1.92.17,3.77.55,5.63,1.12,3.32,1.01,6.1,2.8,8.76,4.98,2.55,2.1,4.42,4.63,5.71,7.6,1.06,2.46,1.35,5.06.86,7.72-.25,1.36.26,2.57,1.24,2.81,1.3.32,2.4-.32,2.88-1.69.64-1.82.63-3.69.43-5.58-.03-.25-.17-.6.09-.76.3-.18.6.07.85.24,2.27,1.52,4.05,3.43,4.86,6.12.08.75.09,1.49-.01,2.25-.42,3.02-2.58,5-5.55,5.05-2.06.03-4.01-.48-5.95-1.08-.54-.17-1.06-.5-1.66-.26Z"/>
        <path class="cls-2" d="m135.77,20.55c.04,1.18.29,2.3,1.09,3.21.62.7,1.38.94,2.31.57.93-.38,1.29-1.08,1.19-2.01-.09-.87-.4-1.74-.38-2.6.04-2.25.52-4.42,1.52-6.47,2.97-6.1,7.91-9.88,14.23-11.95,4.59-1.5,9.26-1.68,13.84,0,2.88,1.06,5.26,2.88,6.98,5.47.24.36.5.74.5,1.22-.02,3.35-.03,6.69-.04,10.04-.73-1.31-1.56-2.57-2.6-3.66-1.22-1.27-2.35-2.67-4.14-3.2-2.12-1.49-4.37-2.68-6.96-3.21-6.59-1.37-14.33,2.05-16.32,8.84-.89,3.01-.34,5.74,1.41,8.28.1.14.18.29.27.44.02.03.02.07.03.14-1.74.77-3.45,1.63-5,2.76-.13-.02-.21.03-.24.15-.04.04-.09.06-.15.08-.57-.13-1.08.1-1.61.25-1.41.41-2.82.84-4.28,1.09-4.03.72-6.82-1.15-7.56-5.05-.09-.47.07-.97-.2-1.41,0-.08.02-.16.02-.25.03-.1.07-.19.1-.29.61-2.3,2.11-3.98,3.85-5.49.62-.54,1.32-.94,2.19-1.32-.03.51-.05.97-.07,1.42-.27.98-.3,1.96,0,2.94Z"/>
        <path class="cls-2" d="m201.05,71.32c-.83-.14-1.58.3-2.47.37.03-2.08-.1-4.12.07-6.17,3.69-1.13,7.24-.66,10.72.87.48.21.94.6,1.53.46,1.99,1.21,4.07,1.47,6.35.62-1.17-1.09-2.3-2.12-3.19-3.38-.54-.76-.95-1.57-1.37-2.39-.29-.55-.12-.78.45-1,2.37-.92,4.43-2.3,6.16-4.2,2.11-2.3,3.46-4.99,3.87-8.03.2-1.46,1.17-1.29,1.92-1.38,2.62-.3,4.94.4,6.28,2.85,1.03,1.88,1.25,3.91.7,6.07-.64,2.48-2.18,3.95-4.55,4.59-1.12.3-2.33.27-3.47.01-1.5-.33-2.15.08-2.62,1.25-.43,1.06.3,2.39,1.46,2.79,5.18,1.79,10.88-.61,13.16-5.82.26-.59.47-1.2.7-1.8.04.09.11.19.12.28.29,6.4-2.64,11.06-8.58,13.49-2.36.96-4.93,1.19-7.42,1.71-2.92.61-5.87.63-8.82.23-1.85-.25-3.58-.95-5.39-1.34-1.86-.4-3.73-.56-5.61-.08Z"/>
        <path class="cls-2" d="m160.3,71.54c-.81.35-1.52-.31-2.3-.23-.52-.2-1.06-.25-1.62-.27-1.95-.08-3.85.21-5.7.78-3.75,1.15-7.56,1.54-11.43.9-2-.33-3.97-.8-5.95-1.24-5.45-1.21-9.2-4.35-10.83-9.76-.44-1.45-.6-2.99-.12-4.51,1.14,3.08,2.92,5.62,5.95,7.1,1.99.97,4.06,1.25,6.22.7.55-.14,1.13-.19,1.66-.37.82-.28,1.45-.77,1.52-1.74.08-.99-.05-1.88-1.13-2.28-.59-.22-1.21-.1-1.83-.02-1.88.25-3.72.34-5.37-.92-1.49-1.14-2.4-2.62-2.64-4.42-.37-2.78.24-5.24,2.52-7.2,1.46-1.26,4.83-1.15,6.03-.63.52.22.43.7.49,1,.74,4.15,2.81,7.47,6.06,10.1,1.08.88,2.26,1.57,3.57,2.05,1.13.41,1.16.6.59,1.67-1.03,1.93-2.45,3.51-4.07,4.95-.12.11-.33.14-.31.45,2.39.72,4.62.27,6.75-.99.91-.06,1.68-.53,2.51-.83,2.82-1.01,5.66-1.3,8.59-.48.67.19.83.49.82,1.14-.04,1.68,0,3.36.01,5.05Z"/>
        <path class="cls-2" d="m197.28,29.78c1.19-1.23,2.52-1.52,4.27-1.26,1.53.23,3.11.32,4.61.71,4.83,1.24,8.61,3.94,11.01,8.37,1.2,2.21,1.81,4.62,1.71,7.13-.19,4.83-2.04,8.74-6.56,10.99-1.49.74-3.11,1.12-4.8,1.05.13-.79,1.11-.84,1.42-1.65-2.5.14-4.69-.5-6.54-2.08-1.91-1.63-2.79-3.71-2.59-6.22.87-2.08,2.97-3.17,5.24-2.9.73.09,1.42.18,2.04.53.87.49,1.51,1.16,1.46,2.29-.04,1.09.55,1.96,1.36,2.17.8.22,2.05-.34,2.52-1.19.52-.94.69-2,.65-3.06-.11-2.57-.88-4.9-2.8-6.71-1.07-1.01-2.2-1.95-3.59-2.52-.37-.33-.87-.34-1.32-.47-1.62-.47-3.25-.98-4.98-.68-.11-.03-.22-.07-.33-.1-.04-.13-.13-.17-.26-.13-.25-.11-.51-.22-.76-.33-.03-.14-.11-.19-.25-.12h0c.02-.45-.31-.74-.53-1.07-.57-.83-1.02-1.69-.98-2.74Z"/>
        <path class="cls-2" d="m159.8,33.7c-.32.11-.64.22-.96.33-2.13.17-4.25.45-6.23,1.32-2.78,1.24-5,3.06-6.05,6.03-.77,2.17-1.03,4.36.16,6.46.75,1.34,2.3,1.49,3.3.47.41-.42.46-.98.45-1.4-.05-1.69,1.07-2.34,2.34-2.86,1.62-.66,4.24-.02,5.42,1.28.38.42.81.84.84,1.47,0,.21-.05.42-.02.62.45,3.48-2.49,6.52-5.73,7.32-1.08.27-2.19.31-3.38.42.56.7,1.43.95,1.61,1.81-1.13-.19-2.27-.31-3.36-.66-4.37-1.4-6.85-4.56-7.77-8.88-1.54-7.26,2.64-13.99,9.22-17.13,2.01-.96,4.15-1.39,6.34-1.73,1.04-.16,2.1-.18,3.13-.26,1.04-.08,1.92.71,2.66,1.49.02.35-.09.66-.17.99-.29,1.16-1.13,1.97-1.78,2.9Z"/>
        <path class="cls-2" d="m193.6,106.32c-4.53-1.72-8.49-4.4-12.24-7.42-4.22-3.4-8.17-7.11-12.11-10.83-3.14-2.96-6.31-5.89-9.46-8.84.13-1.07-.2-2.1-.28-3.16-.03-.37-.39-.92.35-1.06,2.69.96,4.67,2.91,6.73,4.75,2.38,2.12,4.68,4.31,7.04,6.45,3.52,3.19,7.03,6.41,10.61,9.54,2.74,2.39,5.72,4.48,9.12,5.83,4.18,1.67,8.39,1.8,12.51-.26,1.08-.54,2.16-.06,3.2.06,2.32.28,4.5-.09,6.62-.95.23-.09.45-.13.68-.19.03.79-.71.95-1.14,1.33-3.59,3.18-7.84,4.77-12.58,5.14-3.03.23-6.05-.18-9.06-.39Z"/>
        <path class="cls-2" d="m149.29,94.49c-.99-.81-1.87-1.73-2.84-2.76-.18,1.45-.09,2.79.3,4.08.27.91-.29.89-.77.74-3.49-1.1-6.83-3.45-7.42-7.7-.25-1.82.44-3.56,1.63-5.01,1.93-2.36,4.57-3.17,7.58-3.44-.91,1.66-1.8,3.22-1.57,5.13.12,1.01.58,1.74,1.56,2.05.86.27,1.55-.1,2.09-.76.34-.41.37-.95.46-1.43.61-3.13,3.87-4.31,6.57-2.51,1.17.78,2.24,1.65,3.24,2.63.44.43.52.65-.02.99-.32.2-.59.46-.88.71-1.12.97-1.33,2.31-.55,3.47.68,1.01,2.02,1.22,3.3.51.21-.12.39-.27.59-.41,1.37.33,2.26,1.23,2.94,2.4.48.83.32,1.32-.58,1.73-3.63,1.67-7.38,1.73-11.21.98-1.52-.3-2.89-1.07-4.4-1.4Z"/>
        <path class="cls-2" d="m195.92,90.44c.61.52,1.27,1.01,2.08,1.13,1.25.19,2.23-.37,2.69-1.43.42-.97.02-2.26-.98-3.11-1.39-1.18-1.41-1.21,0-2.4.81-.68,1.67-1.3,2.55-1.9,2.21-1.52,5.52-.6,6.19,2.21.15.63.23,1.31.69,1.86.5.61,1.11.99,1.88.81.77-.18,1.42-.59,1.67-1.46.57-1.93-.24-3.53-1.13-5.12-.09-.17-.34-.25-.28-.49,2.29-.07,4.3.63,6.18,1.94,3.35,2.33,3.97,7.48,1.25,10.48-1.56,1.72-3.35,2.97-5.69,3.47-.99.21-.73-.12-.65-.7.18-1.27.42-2.55.26-4.1-1.01,1.14-2,2.04-3.03,2.9-2.32.73-4.61,1.54-7.06,1.74-2.85.23-5.65.11-8.2-1.36-1.46-.84-1.5-1.26-.36-2.52.41-.46.82-.93,1.37-1.24.27-.15.51-.35.57-.69Z"/>
        <path class="cls-2" d="m151.52,20.77c-.88-1.23-.19-2.46.21-3.54.64-1.73,1.95-2.96,3.76-3.55.79.19,1.58.37,2.37.56,1.49.35,2.72,1.22,4.16,2.27-.48-2.06-1.51-3.3-3.19-4.03,3.4-.3,6.46.48,8.89,3,1.24,1.29,2.12,2.82,2.59,4.57.08.29.2.58,0,.94-1.3-.99-2.79-1.56-4.3-2.21.04,1.39.55,2.38,1.54,3.35,4.28,4.16,8.45,8.42,12.66,12.65,1.45,1.46,2.9,2.93,4.4,4.34.55.52.62.98.29,1.62-.56,1.06-.81,2.24-1.29,3.62-2.37-2.43-4.6-4.73-6.84-7.02-3.35-3.42-6.8-6.73-10.36-9.94-2.16-1.94-4.66-3.33-7.37-4.35-.48-.42-1.1-.53-1.67-.72-1.91-.64-3.82-1.29-5.83-1.56Z"/>
        <path class="cls-2" d="m193.81,72.92c-2.22,1.45-4.16,3.22-6.1,5.17-.1-.23-.3-.44-.29-.65.4-9.73-.06-19.46.26-29.18.1-2.93,1.06-5.75,2.77-8.21,1.59-2.31,3.3-2.86,6.04-2.22,1.45.34,2.71,1,4.03,1.87-3.16,1.53-5.1,3.99-6.1,7.25-.3.99-.4,1.98-.4,3-.02,7.11-.03,14.22-.04,21.33-.15.08-.15.17,0,.25,0,.12,0,.25,0,.37-.23.31-.11.68-.17,1.02Z"/>
        <path class="cls-2" d="m171.39,74.63c0,.47,0,.94,0,1.41-.28.48-.08,1-.12,1.5-.09.09.06.57-.3.22-1.8-1.69-3.59-3.38-5.62-4.8-.44-.31-.31-.73-.31-1.12,0-6.97-.03-13.95.01-20.92.03-4.97-2.01-8.71-6.35-11.17.76-.97,2.76-1.91,4.2-2.01,4.02-.3,4.92.57,6.79,4.4,1.15,2.36,1.65,4.94,1.57,7.6-.39.79-.03,1.6-.03,2.39-.01,6.65-.01,13.3,0,19.96,0,.85-.14,1.71.15,2.55Z"/>
        <path class="cls-2" d="m201.05,71.32c1.88-.48,3.75-.32,5.61.08,1.81.39,3.55,1.09,5.39,1.34,2.95.4,5.91.38,8.82-.23,2.48-.52,5.06-.75,7.42-1.71,5.95-2.43,8.87-7.09,8.58-13.49,0-.1-.08-.19-.12-.28.07-.98.14-1.97.21-2.95.4.29,0,.78.31,1.16,1.25-1.09,2.24-2.36,2.93-3.85.18,1.85-.37,3.5-1.58,4.86-.64.72-.62,1.25-.21,2.07,1.04,2.09,1.76,4.31,1.6,6.69-.21,3.07-1.16,5.86-3.1,8.31-2.33,2.93-5.19,4.91-8.95,5.51-1.31.21-2.11,1.19-2.01,2.12.13,1.15,1.25,1.98,2.59,1.95.17,0,.34.02.51.03-.33.25-.72.18-1.1.19-1.61.07-3.12-.29-4.54-1.05-1.13-1.44-2.47-2.66-4.14-3.57.13-.1.17-.13.22-.17,1.78-1.33,3.65-.72,5.5-.24.6.16,1.15-.11,1.72-.17,2.27-.24,4.37-.88,6.31-2.18,2.74-1.84,4.42-4.36,5.25-7.48.21-.79.32-1.68-.49-2.27-.72-.52-1.58-.32-1.97.56-.86,1.93-2.27,3.37-3.85,4.72-1.47,1.26-3.19,1.84-5.03,2.08-1.06.14-2.14.43-3.24.02-.4-.15-.8.03-1.17.27-2.62,1.7-5.52,2.46-8.62,2.42-1.77-.02-3.55.21-5.42-.26.54,1.41,1.66,2.27,2.17,3.51-.06.06-.11.12-.17.18-2.78-2.65-7.86-2.63-10.68-.48-.18.14-.42.21-.64.31.08-1.52.62-3,.41-4.54.75-.12,1.01-.6,1.01-1.31,0-.75.2-1.45.45-2.15Z"/>
        <path class="cls-2" d="m159.87,75.01c-.74.14-.38.7-.35,1.06.08,1.05.41,2.08.28,3.16-.16-.06-.33-.09-.48-.17-4.34-2.46-7.37-2.25-11.37.71.88-1.23,1.76-2.47,2.75-3.87-1.34-.12-2.46.16-3.6.18-3.05.05-6.07-.08-8.84-1.52-1.43-.74-2.75-1.14-4.49-1.09-3.96.12-7.21-1.69-9.47-5.06-.36-.54-.64-1.14-.95-1.72-.35-.63-.73-1.14-1.62-.9-.91.24-1.07.88-1.02,1.65.15,2.12,1.23,3.83,2.41,5.5,1.98,2.81,4.88,4.19,8.09,4.88,1.52.33,3.21.34,4.71-.18,1.1-.38,1.91-.16,2.76.44.19.14.42.23.75.4-1.64,1.11-3.1,2.33-4.13,4-1.12.27-2.22.77-3.41.41.2-.18.41-.35.6-.54,1.22-1.15.84-2.97-.77-3.39-2.09-.54-4.22-.98-6.03-2.26-3.54-2.5-5.67-5.89-6.44-10.15-.59-3.22.17-6.18,1.75-8.97.29-.52.02-.77-.27-1.06-1.4-1.44-2-3.16-1.86-5.15.85,1.5,1.72,2.99,3.25,3.93.08.63.15,1.26.23,1.89-.48,1.52-.32,3.06.12,4.51,1.63,5.41,5.38,8.55,10.83,9.76,1.98.44,3.95.91,5.95,1.24,3.87.64,7.69.25,11.43-.9,1.86-.57,3.75-.86,5.7-.78.56.02,1.1.07,1.62.27.1.56.31,1.12.29,1.68-.06,1.18.57,1.73,1.58,2.02Z"/>
        <path class="cls-2" d="m199.61,23.18c-3.19,1.16-5.96,3-8.43,5.31-1.9,1.78-3.8,3.56-5.69,5.35-.22.21-.41.22-.63.04-.08-.07-.15-.14-.22-.21-.79-.81-2.17-1.6-2.21-2.45-.04-.81,1.29-1.72,2.09-2.5,2.37-2.33,4.74-4.66,7.18-6.91.67-.62,1.13-1.13,1.21-2.13.06-.77-.11-.66-.59-.5-1.32.45-2.54,1.09-3.79,1.85.55-4.2,4.78-8.81,9.44-8.58.48.02.97,0,1.45,0-1.92,1.99-2.37,2.78-2.16,3.86,1.91-1.37,3.86-2.62,6.35-2.47,1.44.29,2.4,1.23,3.14,2.4.87,1.39,1.26,2.89.79,4.53-2.79.34-5.4,1.25-7.94,2.4Z"/>
        <path class="cls-2" d="m122.11,55.32c-1.53-.94-2.4-2.43-3.25-3.93-.83-4.92.79-9.16,4.1-12.64,3.66-3.85,9.05-4.78,13.67-2.7.6.27.7.52.45,1.12-.62,1.48-1.18,2.99-1.29,4.62-.04.55-.38.73-.98.72-1.58-.03-3.15-.24-4.74.17-3.9,1-6.97,4.34-7.7,8.25-.27,1.45-.7,2.9-.26,4.4Z"/>
        <path class="cls-2" d="m240.2,51.39c-.69,1.5-1.68,2.76-2.93,3.85-.31-.38.09-.87-.31-1.16.09-2.3-.28-4.5-1.53-6.46-2.31-3.63-5.65-5.4-9.94-5.32-.7.01-1.4.23-2.18.36.02-2-.64-3.84-1.47-5.62-.22-.46-.05-.63.35-.85,1.9-1.06,3.96-1.33,6.05-1.11,2.65.28,5.08,1.19,7.12,2.98,2.55,2.25,4.12,5.05,4.72,8.41.29,1.65.11,3.28.13,4.92Z"/>
        <path class="cls-2" d="m164.8,106.45c-.13.02-.26.04-.39.06-.73-.45-1.47,0-2.17.07-6.24.68-12.1-.23-17.27-4.03-.91-.67-1.96-1.24-2.52-2.31,2.11,1.03,4.37,1.21,6.67,1.11.54-.02,1.08.04,1.6-.2,1.23-.59,2.21.25,3.23.66,2.99,1.22,6.02,1.28,9.11.51,3.43-.85,6.46-2.53,9.3-4.57.47-.34.71-.31,1.09.07.65.66,1.34,1.28,2.05,1.87.42.35.32.58-.06.86-3.23,2.33-6.61,4.4-10.38,5.78-.12-.04-.21-.01-.27.11Z"/>
        <path class="cls-2" d="m199.59,74.78c.21,1.55-.33,3.02-.41,4.54-3.16,2.88-6.33,5.74-9.47,8.63-1.11,1.02-2.12,2.14-3.29,3.11-.37.31-.58.39-.94.08-.8-.7-1.6-1.4-2.43-2.08-.58-.48-.01-.78.2-.99,1.06-1.07,2.16-2.1,3.27-3.12,2.15-1.96,4.27-3.96,6.48-5.85,2.01-1.72,3.99-3.51,6.59-4.33Z"/>
        <path class="cls-2" d="m193.6,106.32c3.02.21,6.03.63,9.06.39,4.74-.37,9-1.96,12.58-5.14.43-.38,1.17-.54,1.14-1.33,0,0,0,.03,0,.03.15.02.38.15.23-.19,1.87-.87,3.35-2.25,4.81-3.81.28.74.21,1.39.02,2.04-1.48,5.07-4.98,8.02-9.93,9.42-3.01.85-6.11,1.12-9.2.81-2.99-.31-5.97-.88-8.72-2.22Z"/>
        <path class="cls-2" d="m142.45,100.24c.56,1.07,1.61,1.64,2.52,2.31,5.17,3.8,11.03,4.71,17.27,4.03.7-.08,1.44-.52,2.17-.07-1.75.91-3.68,1.22-5.57,1.67-2.27.54-4.58.59-6.87.38-5.1-.48-9.67-2.12-12.71-6.59-1.14-1.67-1.88-3.51-1.78-5.89,1.5,1.82,3.17,3.08,4.97,4.17Z"/>
        <path class="cls-2" d="m200.65,113.2c-2.88,1.67-5.68,2.25-8.68,1.52-4.48-1.09-7.5-3.9-9.27-8.1-.08-.2-.5-.45-.12-.69.31-.19.6.07.84.25,1.67,1.23,3.43,2.29,5.27,3.25,3.68,1.93,7.57,3.15,11.95,3.78Z"/>
        <path class="cls-2" d="m158.61,113.17c6.44-1.13,12.25-3.51,17.56-7.23-1.03,4.16-3.85,6.66-7.61,8.23-3.42,1.43-8.02.84-9.94-1.01Z"/>
        <path class="cls-2" d="m160.3,71.54c0-1.68-.05-3.37-.01-5.05.02-.65-.15-.95-.82-1.14-2.93-.82-5.77-.53-8.59.48-.83.3-1.6.77-2.51.83,1.06-1.39,2.1-2.79,2.73-4.44.18-.48.57-.42.95-.42,2.79-.07,5.45-.57,7.8-2.22.29-.2.55-.26.56.24,0,3.81.02,7.63.02,11.44,0,.09-.08.18-.13.28Z"/>
        <path class="cls-2" d="m195.92,90.44c-.06.34-.3.54-.57.69-.55.31-.96.79-1.37,1.24-1.14,1.26-1.09,1.69.36,2.52,2.56,1.47,5.35,1.59,8.2,1.36,2.45-.2,4.75-1.01,7.06-1.74-1.52,2.05-3.65,2.99-6.07,3.51-4.96,1.05-9.21-.59-13.19-3.35-.5-.35-.56-.54-.06-.98,1.29-1.14,2.5-2.36,3.77-3.51.98-.89,1-.86,1.87.26Z"/>
        <path class="cls-2" d="m149.29,94.49c1.51.33,2.87,1.1,4.4,1.4,3.84.75,7.58.68,11.21-.98.9-.41,1.06-.91.58-1.73-.68-1.18-1.58-2.07-2.94-2.4,1.89-1.72,1.16-1.7,2.94-.09,1.07.97,2.09,2,3.17,2.97.45.41.43.63-.08.99-3.65,2.55-7.6,4.08-12.12,3.58-2.85-.31-5.36-1.37-7.16-3.73Z"/>
        <path class="cls-2" d="m210.9,66.85c-.6.14-1.06-.25-1.53-.46-3.48-1.53-7.03-2-10.72-.87,0-1.99,0-3.97,0-6.02.49.08.92.24,1.33.48,2.16,1.22,4.48,1.89,6.98,1.8.4-.01.73.01.92.45.74,1.72,1.82,3.21,3.02,4.62Z"/>
        <path class="cls-2" d="m133.52,88.06c-.06,1.79.33,3.48,1.1,5.08.44.91-.21.74-.65.68-2.6-.32-4.03-2.07-4.97-4.29-.87-2.05-1.16-4.23-1.02-6.46.07.15.13.3.21.45,1.14,2.26,2.66,4.07,5.33,4.53Z"/>
        <path class="cls-2" d="m230.86,84.11c.28,2.78-.33,5.31-2.03,7.56-.97,1.27-2.3,1.92-3.82,2.2-.46.08-.98.09-.61-.68.74-1.55,1.02-3.2.94-4.91,1.38-.32,2.6-.91,3.65-1.91.72-.68,1.03-1.68,1.87-2.25Z"/>
        <path class="cls-2" d="m215.89,28.75c.6-.24,1.13.09,1.66.26,1.94.6,3.89,1.11,5.95,1.08,2.97-.05,5.13-2.03,5.55-5.05.1-.75.1-1.5.01-2.25,1.01,1.44,1.42,3.11,1.62,4.81.08.71.21,1.42.22,2.14,0,.57-.13.8-.77.71-3.57-.5-7.05-.25-10.29,1.51-.48.26-.73.2-1.11-.24-.9-1.04-1.89-1.98-2.85-2.97Z"/>
        <path class="cls-2" d="m129.67,23.54c.27.44.12.94.2,1.41.74,3.9,3.53,5.76,7.56,5.05,1.45-.26,2.86-.68,4.28-1.09.52-.15,1.04-.38,1.61-.25-1.05,1.08-2.24,2.03-3.17,3.23-.22.29-.44.38-.79.19-3.09-1.73-6.45-1.94-9.89-1.79-1.64.07-1.41.13-1.29-1.28.16-1.89.38-3.81,1.49-5.46Z"/>
        <path class="cls-2" d="m151.54,56.97c-.18-.85-1.05-1.11-1.61-1.81,1.19-.11,2.29-.16,3.38-.42,3.24-.8,6.18-3.84,5.73-7.32-.03-.2.01-.41.02-.62.99.82,1.06,2.02,1.18,3.14.3,2.87-1.27,4.69-3.64,5.92-1.57.81-3.27,1.2-5.06,1.11Z"/>
        <path class="cls-2" d="m199.8,46.81c-.19,2.51.68,4.59,2.59,6.22,1.86,1.58,4.05,2.22,6.54,2.08-.31.81-1.29.86-1.42,1.65-2.85.47-5.22-.5-7.19-2.5-1.72-1.74-2.19-3.79-1.21-6.09.2-.47.45-.91.68-1.36Z"/>
        <path class="cls-2" d="m230.86,84.11c-.84.57-1.14,1.57-1.87,2.25-1.05.99-2.27,1.58-3.65,1.91.02-2.27-.83-4.27-1.91-6.2,1.42.76,2.93,1.12,4.54,1.05.37-.02.76.05,1.1-.19.17-.02.34-.03.51-.05q1.36-.16,1.29,1.24Z"/>
        <path class="cls-2" d="m133.52,88.06c-2.67-.45-4.2-2.26-5.33-4.53-.07-.15-.14-.3-.21-.45,0-.78.64-.43.86-.36.53.17,1.05.12,1.57.21.28.22.57.25.87.03.2-.02.4-.05.59-.07,1.2.36,2.29-.13,3.41-.41-1.07,1.71-1.55,3.6-1.77,5.58Z"/>
        <path class="cls-2" d="m170.27,11.17c1.79.53,2.93,1.93,4.14,3.2,1.04,1.09,1.87,2.35,2.6,3.66,0,2.27,0,4.54,0,6.97-.9-.92-1.62-1.62-1.67-3.03-.12-3.77-1.68-7.02-4.22-9.79-.3-.32-.57-.67-.85-1.01Z"/>
        <path class="cls-2" d="m181.87,18.01c.55-.08.6-.6.81-.96,1.3-2.27,3.04-4.13,5.2-5.59.3-.2.58-.48,1-.44-.96,1.16-2.06,2.2-2.88,3.48-1.52,2.4-2.43,4.99-2.52,7.83-.03,1-.82,1.43-1.45,2.25-.19-2.31.1-4.45-.16-6.57Z"/>
        <path class="cls-2" d="m200.38,34.27c1.73-.3,3.36.21,4.98.68.44.13.94.13,1.32.47-.25.09-.16.22-.08.39.64,1.31.99,2.68.9,4.47-2.52-2.02-4.47-4.46-7.13-6Z"/>
        <path class="cls-2" d="m152.61,35.35c1.99-.87,4.1-1.15,6.23-1.32-2.71,1.6-4.91,3.83-7.15,6.03-.2-1.73.35-3.23.91-4.71Z"/>
        <path class="cls-2" d="m199.61,23.18c2.54-1.15,5.15-2.06,7.94-2.4-.23,1.23-1.04,2.13-1.79,3.06-.27.33-.62.21-.95.14-1.07-.2-2.15-.41-3.25-.34-.69.04-1.39.09-1.95-.45Z"/>
        <path class="cls-2" d="m151.52,20.77c2.01.27,3.92.92,5.83,1.56.57.19,1.19.3,1.67.72.02.32-.15.41-.44.41-1.55-.03-3.07.23-4.58.49-.25.04-.48.1-.65-.13-.7-.96-1.61-1.8-1.83-3.04Z"/>
        <path class="cls-2" d="m159.8,33.7c.66-.93,1.49-1.74,1.78-2.9.08-.33.19-.65.17-.99,1.02.6,3.14,2.47,3.72,3.34-1.96.02-3.82.21-5.67.56Z"/>
        <path class="cls-2" d="m203.61,13.85c-2.49-.15-4.44,1.1-6.35,2.47-.21-1.08.23-1.87,2.16-3.86,1.55,0,3.02.25,4.2,1.39Z"/>
        <path class="cls-2" d="m197.28,29.78c-.04,1.04.41,1.91.98,2.74.23.33.55.62.53,1.08-1.36-.09-2.7-.51-4.08-.41-.48.04-.97.08-1.71.14,1.55-1.31,2.77-2.59,4.28-3.54Z"/>
        <path class="cls-2" d="m158.83,12.48c1.68.73,2.7,1.97,3.19,4.03-1.43-1.05-2.66-1.92-4.16-2.27-.79-.18-1.58-.37-2.37-.56.96-.82,2.14-1.04,3.34-1.2Z"/>
        <path class="cls-2" d="m171.39,74.63c-.3-.83-.15-1.7-.15-2.55-.02-6.65-.02-13.3,0-19.96,0-.8-.36-1.6.03-2.39.26.26.13.59.15.88.15,2.78.14,5.57.11,8.34-.03,3.26.02,6.53-.08,9.79-.06,1.96-.03,3.93-.04,5.89Z"/>
        <path class="cls-2" d="m181.98,8.06c0,1.75.15,3.5-.12,5.24-.03-1.75-.22-3.5.12-5.24Z"/>
        <path class="cls-2" d="m197.77.23c-1.12,0-2.23-.01-3.35-.02,1.12-.34,2.23-.21,3.35.02Z"/>
        <path class="cls-2" d="m135.77,20.55c-.31-.98-.27-1.96,0-2.94,0,.98,0,1.96,0,2.94Z"/>
        <path class="cls-2" d="m171.27,77.54c.04-.5-.16-1.02.12-1.5.04.51.23,1.02-.12,1.5Z"/>
        <path class="cls-2" d="m193.81,72.92c.06-.34-.06-.71.17-1.02.05.36.22.74-.17,1.02Z"/>
        <path class="cls-2" d="m131.28,82.97c-.3.22-.59.19-.87-.03.29-.07.58-.07.87.03Z"/>
        <path class="cls-2" d="m216.61,100.09c.16.34-.08.21-.23.19,0-.15.11-.17.23-.19Z"/>
        <path class="cls-2" d="m210.81,79.58c.15.05.21.14.16.29,0,.02-.08.04-.09.03-.07-.09-.23-.17-.07-.31h0Z"/>
        <path class="cls-2" d="m129.79,23c-.03.1-.07.19-.1.29-.1-.15-.03-.23.1-.29Z"/>
        <path class="cls-2" d="m143.46,28.57c.03-.13.12-.17.24-.15-.04.12-.11.19-.24.15Z"/>
        <path class="cls-2" d="m210.81,79.58c-.15.14-.22-.02-.31-.09.06-.06.11-.12.17-.18.05.09.1.18.15.27h0Z"/>
        <path class="cls-2" d="m164.8,106.45c.05-.12.14-.15.27-.11-.06.12-.14.17-.27.11Z"/>
        <path class="cls-2" d="m193.97,71.52c-.15-.08-.15-.17,0-.25,0,.08,0,.17,0,.25Z"/>
        <path class="cls-2" d="m198.79,33.59c.14-.08.21-.02.25.12-.12.05-.2,0-.25-.12Z"/>
        <path class="cls-2" d="m199.79,34.04c.13-.04.22,0,.26.13-.13.04-.22,0-.26-.13Z"/>
      </g>
      <text class="cls-1" transform="translate(30 221.72)"><tspan class="cls-6" x="0" y="0">C</tspan><tspan class="cls-7" x="14.78" y="0">ONNE</tspan><tspan class="cls-6" x="76.62" y="0">CTIN</tspan><tspan class="cls-7" x="128.06" y="0">G</tspan><tspan class="cls-3" x="143.56" y="0"> </tspan><tspan class="cls-7" x="150.47" y="0">YOU </tspan><tspan class="cls-6" x="203.97" y="0">T</tspan><tspan class="cls-7" x="217.46" y="0">O</tspan><tspan class="cls-6" x="234.08" y="0" xml:space="preserve"> CA</tspan><tspan class="cls-7" x="271.73" y="0">R</tspan><tspan class="cls-4" x="286.31" y="0">E</tspan></text>
    </g>
  </g>
</svg>